<svg xmlns="http://www.w3.org/2000/svg" width="131.9501190185547" height="131.2303924560547" viewBox="0 0 131.9501190185547 131.2303924560547">
<g transform="matrix(1 0 0 1 0 0)"><g transform="matrix(1 0 0 1 4.8701171875 4.150390625)"><g transform="matrix(1 0 0 1 0 0)" opacity="0.5">
  <path d="M 110.20 127.07 L 16.88 127.07 C 7.60 127.07 0.00 119.50 0.00 110.22 L 0.00 16.87 C 0.00 7.59 7.60 0.00 16.87 0.00 L 110.21 0.00 C 119.48 0.00 127.08 7.60 127.08 16.87 L 127.08 110.21 C 127.08 119.49 119.48 127.08 110.21 127.08 L 110.20 127.07" fill="#000000" fill-rule="nonzero"/>
</g></g>
<g transform="matrix(1 0 0 1 0 0)"><g transform="matrix(1 0 0 1 0 0)"><g transform="matrix(1 0 0 1 0 0)">
  <path d="M 110.21 127.07 L 16.87 127.07 C 7.59 127.07 0.00 119.48 0.00 110.20 L 0.00 16.87 C 0.00 7.59 7.60 0.00 16.87 0.00 L 110.21 0.00 C 119.49 0.00 127.08 7.59 127.08 16.87 L 127.08 110.20 C 127.08 119.48 119.48 127.07 110.21 127.07" fill="#eae9e4" fill-rule="nonzero"/>
</g>
<g transform="matrix(1 0 0 1 58.88595199584961 96.09468841552734)">
  <path d="M 5.18 0.01 C 9.53 -0.20 12.22 5.87 8.84 8.84 C 5.94 12.08 -0.34 9.60 0.01 5.18 C 0.01 2.21 2.21 0.01 5.18 0.01" fill="#004405" fill-rule="nonzero"/>
</g></g>
<g transform="matrix(1 0 0 1 42.009765625 22.1396484375)">
  <path d="M 43.06 24.44 C 43.06 26.78 42.64 29.01 41.79 31.14 C 40.94 33.27 39.81 35.28 38.43 37.11 C 37.03 38.98 35.44 40.71 33.68 42.26 C 31.97 43.78 30.17 45.19 28.30 46.50 L 42.19 46.50 L 41.13 64.78 L 0.00 63.38 L 0.00 47.38 C 1.66 46.81 3.29 46.17 4.90 45.46 C 6.61 44.72 8.30 43.86 9.95 42.89 C 11.60 41.93 13.17 40.84 14.65 39.64 C 16.09 38.48 17.40 37.16 18.56 35.71 C 19.69 34.29 20.58 32.74 21.24 31.07 C 21.90 29.40 22.24 27.60 22.24 25.67 C 22.24 24.55 22.04 23.57 21.64 22.72 C 21.26 21.89 20.70 21.16 19.99 20.59 C 19.29 20.02 18.48 19.59 17.55 19.32 C 16.62 19.05 15.65 18.90 14.59 18.90 C 13.71 18.90 12.82 19.00 11.91 19.18 C 11.00 19.38 10.11 19.65 9.23 20.00 C 8.35 20.35 7.52 20.78 6.74 21.30 C 5.98 21.80 5.29 22.38 4.66 23.03 L 0.79 5.80 C 1.87 4.72 3.12 3.81 4.52 3.08 C 5.93 2.34 7.41 1.75 8.96 1.30 C 10.51 0.84 12.10 0.51 13.71 0.30 C 15.31 0.10 16.91 0.00 18.45 0.00 C 21.91 0.00 25.13 0.62 28.12 1.87 C 31.11 3.12 33.71 4.83 35.92 7.01 C 38.20 9.30 40.01 12.02 41.23 15.01 C 42.46 18.00 43.08 21.21 43.06 24.44 L 43.06 24.44" fill="#004405" fill-rule="nonzero"/>
</g></g></g>
</svg>
